<svg preserveAspectRatio="none" width="100%" height="100%" overflow="visible" style="display: block;" viewBox="0 0 132 132" fill="none" xmlns="http://www.w3.org/2000/svg">
<path id="Union" d="M66.0732 2L66.0733 0.5L66.0733 0.5L66.0732 2ZM86.1836 19.7617L87.6836 19.7617V19.7617L86.1836 19.7617ZM80.6055 35.1738L79.2899 34.4531L79.2899 34.4532L80.6055 35.1738ZM73.0479 59.0146L71.5709 58.7527L71.1958 60.868L73.3108 60.4914L73.0479 59.0146ZM96.8262 51.4678L97.5469 52.7833L97.5469 52.7833L96.8262 51.4678ZM112.238 45.8896L112.238 44.3896L112.238 44.3896L112.238 45.8896ZM129.989 65.3867L131.489 65.3604L131.489 65.3476L131.488 65.3348L129.989 65.3867ZM130 66L131.5 65.9962L131.5 65.985L131.5 65.9737L130 66ZM130 66.0732L131.5 66.0733L131.5 66.0733L130 66.0732ZM112.238 86.1836L112.238 87.6836H112.238L112.238 86.1836ZM96.8262 80.6055L97.5469 79.2899L97.5468 79.2899L96.8262 80.6055ZM73.0605 73.0605L73.3237 71.5838L71.2065 71.2065L71.5838 73.3237L73.0605 73.0605ZM80.6055 96.8262L79.2899 97.5468L79.2899 97.5469L80.6055 96.8262ZM86.1836 112.238L87.6836 112.238L87.6836 112.238L86.1836 112.238ZM66.0732 130L66.0733 131.5L66.0733 131.5L66.0732 130ZM66 130L65.9737 131.5L65.985 131.5L65.9962 131.5L66 130ZM65.3867 129.989L65.3348 131.488L65.3476 131.489L65.3604 131.489L65.3867 129.989ZM45.8896 112.238L44.3896 112.238V112.238H45.8896ZM51.4678 96.8262L52.7833 97.5469L52.7833 97.5468L51.4678 96.8262ZM59.0146 73.0469L60.4914 73.3098L60.868 71.1948L58.7527 71.5699L59.0146 73.0469ZM35.1738 80.6055L34.4532 79.2899L34.4531 79.2899L35.1738 80.6055ZM19.7617 86.1836L19.7617 87.6836L19.7617 87.6836L19.7617 86.1836ZM2 66.0732L3.5 66.0732L3.5 66.0694L2 66.0732ZM2 66L0.50023 65.9737L0.5 65.9869L0.5 66L2 66ZM2.01074 65.3867L0.511643 65.3348L0.511197 65.3476L0.510972 65.3604L2.01074 65.3867ZM19.7617 45.8896L19.7617 44.3896H19.7617V45.8896ZM35.1738 51.4678L34.4531 52.7833L34.4531 52.7833L35.1738 51.4678ZM59.0283 59.0283L58.7666 60.5053L60.8798 60.8798L60.5053 58.7666L59.0283 59.0283ZM51.4678 35.1738L52.7833 34.4531L52.7833 34.4531L51.4678 35.1738ZM45.8896 19.7617L44.3896 19.7617L44.3896 19.7617L45.8896 19.7617ZM65.3867 2.01074L65.3604 0.510972L65.3476 0.511197L65.3348 0.511642L65.3867 2.01074ZM66 2L65.9962 0.500005L65.985 0.500033L65.9737 0.50023L66 2ZM66.0732 2L66.0732 3.5C69.0102 3.50004 73.745 4.36062 77.6948 6.85351C81.5683 9.29817 84.6836 13.2933 84.6836 19.7617L86.1836 19.7617L87.6836 19.7617C87.6836 12.1078 83.8998 7.22213 79.296 4.31654C74.7687 1.45917 69.4483 0.50005 66.0733 0.5L66.0732 2ZM86.1836 19.7617L84.6836 19.7617C84.6836 22.0475 84.4636 23.6064 83.7227 25.5957C82.9514 27.6665 81.6154 30.2083 79.2899 34.4531L80.6055 35.1738L81.921 35.8945C84.2191 31.6996 85.6721 28.9572 86.534 26.6428C87.4263 24.2469 87.6836 22.3197 87.6836 19.7617L86.1836 19.7617ZM80.6055 35.1738L79.2899 34.4532C75.7487 40.9173 72.9455 51.0015 71.5709 58.7527L73.0479 59.0146L74.5248 59.2766C75.8754 51.6607 78.607 41.9439 81.921 35.8945L80.6055 35.1738ZM73.0479 59.0146L73.3108 60.4914C81.0529 59.1128 91.1 56.315 97.5469 52.7833L96.8262 51.4678L96.1055 50.1522C90.0727 53.4571 80.3921 56.1832 72.7849 57.5379L73.0479 59.0146ZM96.8262 51.4678L97.5469 52.7833C101.792 50.4579 104.333 49.1218 106.404 48.3506C108.394 47.6097 109.953 47.3897 112.238 47.3896L112.238 45.8896L112.238 44.3896C109.68 44.3897 107.753 44.6469 105.357 45.5392C103.043 46.4012 100.3 47.8542 96.1055 50.1522L96.8262 51.4678ZM112.238 45.8896L112.238 47.3896C118.51 47.3896 122.45 50.317 124.91 54.0138C127.418 57.7822 128.384 62.3669 128.49 65.4387L129.989 65.3867L131.488 65.3348C131.368 61.8586 130.298 56.6947 127.408 52.3516C124.47 47.9369 119.648 44.3896 112.238 44.3896L112.238 45.8896ZM129.989 65.3867L128.489 65.413L128.5 66.0263L130 66L131.5 65.9737L131.489 65.3604L129.989 65.3867ZM130 66L128.5 66.0038C128.5 66.0258 128.5 66.0437 128.5 66.0732L130 66.0732L131.5 66.0733C131.5 66.0543 131.5 66.0227 131.5 65.9962L130 66ZM130 66.0732L128.5 66.0732C128.5 69.0102 127.639 73.745 125.146 77.6948C122.702 81.5683 118.707 84.6836 112.238 84.6836L112.238 86.1836L112.238 87.6836C119.892 87.6836 124.778 83.8998 127.683 79.296C130.541 74.7687 131.5 69.4483 131.5 66.0733L130 66.0732ZM112.238 86.1836L112.238 84.6836C109.953 84.6836 108.394 84.4636 106.404 83.7227C104.334 82.9515 101.792 81.6154 97.5469 79.2899L96.8262 80.6055L96.1055 81.921C100.3 84.2191 103.043 85.6721 105.357 86.534C107.753 87.4263 109.68 87.6836 112.238 87.6836L112.238 86.1836ZM96.8262 80.6055L97.5468 79.2899C91.1035 75.7602 81.0639 72.9632 73.3237 71.5838L73.0605 73.0605L72.7974 74.5373C80.4028 75.8927 90.076 78.6179 96.1055 81.921L96.8262 80.6055ZM73.0605 73.0605L71.5838 73.3237C72.9632 81.064 75.7601 91.1035 79.2899 97.5468L80.6055 96.8262L81.921 96.1055C78.6179 90.076 75.8927 80.4028 74.5373 72.7974L73.0605 73.0605ZM80.6055 96.8262L79.2899 97.5469C81.6154 101.792 82.9514 104.333 83.7227 106.404C84.4636 108.394 84.6836 109.953 84.6836 112.238L86.1836 112.238L87.6836 112.238C87.6836 109.68 87.4263 107.753 86.534 105.357C85.6721 103.043 84.2191 100.3 81.921 96.1055L80.6055 96.8262ZM86.1836 112.238H84.6836C84.6836 118.707 81.5683 122.702 77.6949 125.146C73.745 127.639 69.0102 128.5 66.0732 128.5L66.0732 130L66.0733 131.5C69.4484 131.5 74.7687 130.541 79.296 127.683C83.8998 124.778 87.6836 119.892 87.6836 112.238H86.1836ZM66.0732 130L66.0732 128.5C66.0437 128.5 66.0258 128.5 66.0038 128.5L66 130L65.9962 131.5C66.0227 131.5 66.0543 131.5 66.0733 131.5L66.0732 130ZM66 130L66.0263 128.5L65.413 128.489L65.3867 129.989L65.3604 131.489L65.9737 131.5L66 130ZM65.3867 129.989L65.4387 128.49C62.3669 128.384 57.7822 127.418 54.0138 124.91C50.317 122.45 47.3896 118.51 47.3896 112.238H45.8896H44.3896C44.3896 119.648 47.9369 124.47 52.3516 127.408C56.6947 130.298 61.8586 131.368 65.3348 131.488L65.3867 129.989ZM45.8896 112.238L47.3896 112.238C47.3897 109.953 47.6097 108.394 48.3506 106.404C49.1218 104.334 50.4578 101.792 52.7833 97.5469L51.4678 96.8262L50.1522 96.1055C47.8541 100.3 46.4011 103.043 45.5392 105.357C44.6469 107.753 44.3897 109.68 44.3896 112.238L45.8896 112.238ZM51.4678 96.8262L52.7833 97.5468C56.3152 91.0997 59.1129 81.052 60.4914 73.3098L59.0146 73.0469L57.5379 72.7839C56.1834 80.3913 53.4573 90.0725 50.1522 96.1055L51.4678 96.8262ZM59.0146 73.0469L58.7527 71.5699C51.0014 72.9447 40.9173 75.7488 34.4532 79.2899L35.1738 80.6055L35.8945 81.921C41.944 78.607 51.6609 75.8745 59.2766 74.5238L59.0146 73.0469ZM35.1738 80.6055L34.4531 79.2899C30.2083 81.6154 27.6665 82.9515 25.5957 83.7227C23.6064 84.4636 22.0475 84.6836 19.7617 84.6836L19.7617 86.1836L19.7617 87.6836C22.3197 87.6836 24.2469 87.4263 26.6428 86.534C28.9571 85.6721 31.6995 84.2191 35.8945 81.921L35.1738 80.6055ZM19.7617 86.1836V84.6836C13.2933 84.6836 9.29817 81.5683 6.85351 77.6948C4.36062 73.745 3.50004 69.0102 3.5 66.0732L2 66.0732L0.5 66.0733C0.50005 69.4483 1.45917 74.7687 4.31654 79.296C7.22213 83.8998 12.1078 87.6836 19.7617 87.6836V86.1836ZM2 66.0732L3.5 66.0694C3.49994 66.0474 3.5 66.0296 3.5 66L2 66L0.5 66C0.5 66.019 0.499938 66.0506 0.500005 66.077L2 66.0732ZM2 66L3.49977 66.0263L3.51051 65.413L2.01074 65.3867L0.510972 65.3604L0.50023 65.9737L2 66ZM2.01074 65.3867L3.50984 65.4387C3.61632 62.3669 4.58171 57.7822 7.08975 54.0138C9.55011 50.317 13.4901 47.3896 19.7617 47.3896V45.8896V44.3896C12.3525 44.3896 7.53047 47.9369 4.5923 52.3516C1.70182 56.6947 0.632143 61.8586 0.511643 65.3348L2.01074 65.3867ZM19.7617 45.8896L19.7617 47.3896C22.0475 47.3897 23.6064 47.6097 25.5957 48.3506C27.6665 49.1218 30.2083 50.4579 34.4531 52.7833L35.1738 51.4678L35.8945 50.1522C31.6996 47.8542 28.9572 46.4012 26.6428 45.5392C24.247 44.6469 22.3197 44.3897 19.7617 44.3896L19.7617 45.8896ZM35.1738 51.4678L34.4531 52.7833C40.9211 56.3266 51.0133 59.1314 58.7666 60.5053L59.0283 59.0283L59.29 57.5513C51.6724 56.2015 41.9475 53.4682 35.8945 50.1522L35.1738 51.4678ZM59.0283 59.0283L60.5053 58.7666C59.1314 51.0133 56.3266 40.9211 52.7833 34.4531L51.4678 35.1738L50.1522 35.8945C53.4682 41.9475 56.2015 51.6724 57.5513 59.29L59.0283 59.0283ZM51.4678 35.1738L52.7833 34.4531C50.4578 30.2082 49.1218 27.6665 48.3506 25.5957C47.6097 23.6064 47.3897 22.0475 47.3896 19.7617L45.8896 19.7617L44.3896 19.7617C44.3897 22.3197 44.6469 24.2469 45.5392 26.6428C46.4011 28.9571 47.8541 31.6995 50.1522 35.8945L51.4678 35.1738ZM45.8896 19.7617L47.3896 19.7617C47.3896 13.49 50.317 9.55005 54.0138 7.0897C57.7822 4.58166 62.3669 3.6163 65.4387 3.50984L65.3867 2.01074L65.3348 0.511642C61.8586 0.632114 56.6947 1.70176 52.3516 4.59224C47.9369 7.5304 44.3896 12.3524 44.3896 19.7617L45.8896 19.7617ZM65.3867 2.01074L65.413 3.51051L66.0263 3.49977L66 2L65.9737 0.50023L65.3604 0.510972L65.3867 2.01074ZM66 2L66.0038 3.5C66.0258 3.49994 66.0436 3.5 66.0732 3.5L66.0732 2L66.0733 0.5C66.0543 0.5 66.0227 0.499938 65.9962 0.500005L66 2Z" fill="var(--stroke-0, #666666)"/>
</svg>
