<svg preserveAspectRatio="none" width="100%" height="100%" overflow="visible" style="display: block;" viewBox="0 0 161 161" fill="none" xmlns="http://www.w3.org/2000/svg">
<g id="game-icons:hanger">
<path id="Vector" d="M102.479 83.5163V151.696H53.7955V83.5163H102.479ZM131.203 87.2898C134.908 88.7893 138.591 90.3434 142.251 91.9499H109.139V87.2898H131.203ZM47.1353 87.2898V91.9499H21.5494C24.8971 90.5159 28.5646 88.9391 32.5132 87.2898H47.1353ZM80.6529 45.3015C82.3691 45.3015 83.9051 46.5035 86.0543 49.0241C88.1394 51.4697 90.4147 54.9294 93.9449 57.2009C103.124 63.1069 113.802 66.1211 123.602 69.5466C133.441 72.9858 142.339 76.7997 148.632 83.6901C148.983 84.0738 149.461 84.9153 149.967 86.03C150.32 86.8067 150.673 87.6888 150.995 88.5837C146.155 86.3413 139.16 83.2155 129.517 79.4499C113.839 73.3278 94.8629 67.0293 80.7086 66.7937C74.2833 66.6868 66.7913 68.17 59.0347 70.4314C51.2726 72.6943 43.2142 75.7465 35.65 78.7995C28.0851 81.8529 21.0432 84.9403 15.4849 87.3005C13.3639 88.2014 11.5268 88.9562 9.92535 89.5876C10.2925 88.4683 10.739 87.3166 11.191 86.3112C11.7501 85.0677 12.2904 84.1106 12.6744 83.6901C18.9676 76.7997 27.8652 72.9858 37.7037 69.5466C47.5035 66.1211 58.1814 63.1069 67.3609 57.2009C70.8914 54.9294 73.1667 51.4694 75.2515 49.0241C77.4007 46.5031 78.937 45.3015 80.6529 45.3015ZM80.6529 9.30441C84.9373 9.30442 88.3515 10.8316 90.4488 13.2546C92.5533 15.6861 93.3225 18.8514 93.0777 21.8855C92.6515 27.1657 89.0201 32.4651 83.3707 33.7712L82.983 33.861V38.9148C82.2487 38.741 81.4743 38.6413 80.6529 38.6413H80.6519C79.8669 38.6422 79.0854 38.7338 78.3228 38.9138V29.4294H80.7076L80.7613 29.4177C85.1414 28.4445 88.1066 25.5572 88.4332 21.5095C88.594 19.5147 88.0871 17.6476 86.9244 16.3044C85.7538 14.9523 83.9123 13.9646 80.6529 13.9646C79.3176 13.9646 77.0857 14.0371 75.313 14.8073L74.9654 14.9704C74.0784 15.4206 73.2187 15.9871 72.5992 17.0388C72.0351 17.9966 71.7004 19.3066 71.6509 21.198H66.9918C67.1512 15.8324 69.8699 12.3311 72.855 10.8151C75.2521 9.5981 77.7067 9.35875 79.3707 9.31417L80.0328 9.30441C80.2664 9.30378 80.4724 9.30441 80.6529 9.30441Z" stroke="var(--stroke-0, white)"/>
<path id="Vector_2" d="M68.2363 123.09L68.5898 123.443L71.4297 126.282L71.7832 126.636L88.6357 109.783L88.2822 109.43L85.4434 106.59L85.0898 106.236L68.2363 123.09ZM84.5029 118.652C83.4818 118.652 82.5023 119.058 81.7803 119.78C81.0582 120.502 80.6524 121.482 80.6523 122.503C80.6523 124.63 82.3682 126.372 84.5029 126.372C85.5291 126.372 86.5136 125.965 87.2393 125.239C87.9649 124.514 88.3721 123.529 88.3721 122.503C88.372 120.368 86.6303 118.652 84.5029 118.652ZM72.4082 106.538C70.2581 106.538 68.5381 108.258 68.5381 110.408C68.5383 112.541 70.2601 114.258 72.4082 114.258C73.4292 114.258 74.4079 113.852 75.1299 113.13C75.8519 112.408 76.2577 111.429 76.2578 110.408C76.2578 108.26 74.541 106.538 72.4082 106.538ZM63.7656 122.524L63.6201 122.378L57.7061 116.41L63.6182 110.535L63.7656 110.389V101.766H72.3887L72.5352 101.618L78.4102 95.7061L84.3779 101.62L84.5244 101.766H93.127V110.389L93.2744 110.535L99.1846 116.41L93.2715 122.378L93.127 122.524V131.127H84.5244L84.3779 131.271L78.4102 137.185L72.5352 131.274L72.3887 131.127H63.7656V122.524Z" fill="var(--fill-0, white)" stroke="var(--stroke-0, white)"/>
</g>
</svg>
