<svg preserveAspectRatio="none" width="100%" height="100%" overflow="visible" style="display: block;" viewBox="0 0 137 139" fill="none" xmlns="http://www.w3.org/2000/svg">
<path id="Union" d="M56.0283 0.0683594L108.75 20.4648L109.024 20.5713L109.064 20.8623C110.299 29.7366 110.908 38.0054 110.988 45.7021C113.166 47.1991 115.209 48.893 117.087 50.7705C121.113 54.7964 124.307 59.5759 126.485 64.8359C128.664 70.0962 129.785 75.735 129.785 81.4287C129.785 87.1223 128.664 92.7603 126.485 98.0205C124.37 103.127 121.296 107.778 117.436 111.729L136.782 131.075L136.075 131.782L116.729 112.436C112.778 116.296 108.127 119.37 103.021 121.485C97.7603 123.664 92.1223 124.785 86.4287 124.785C84.7633 124.785 83.108 124.687 81.4697 124.498C72.5762 132.26 63.2517 136.472 55.9521 138.024L55.8418 138.048L55.7324 138.021C27.6402 131.347 12.8205 110.352 5.70801 86.9209C-1.40072 63.5017 -0.838944 37.5799 1.86328 20.8516L1.90918 20.5664L2.17871 20.4639L55.6699 0.0683594L55.8496 0L56.0283 0.0683594ZM2.80566 21.2939C0.159672 37.926 -0.348887 63.5272 6.66406 86.6309C13.7037 109.822 28.2939 130.427 55.8516 137.021C62.7831 135.525 71.6191 131.567 80.1357 124.325C70.9643 122.98 62.4033 118.72 55.7705 112.087C47.6396 103.956 43.0714 92.9276 43.0713 81.4287C43.0713 69.9297 47.6395 58.9015 55.7705 50.7705C63.9015 42.6395 74.9297 38.0713 86.4287 38.0713C92.1223 38.0713 97.7603 39.1932 103.021 41.3721C105.452 42.3791 107.779 43.6058 109.978 45.0283C109.871 37.6553 109.279 29.7525 108.113 21.29L55.8457 1.07031L2.80566 21.2939ZM54.6553 15.5244L102.155 31.0244L102.451 31.1211L102.495 31.4297L103.495 38.4297L102.505 38.5703L101.549 31.8789L54.5107 16.5293L13.4512 31.8643C11.4981 44.9805 11.2208 64.6462 16.6787 82.8311C22.159 101.09 33.4003 117.802 54.4873 124.967L61.8145 122.036L62.1855 122.964L54.5146 126.032L54.3398 125.974C32.7386 118.706 21.2755 101.627 15.7207 83.1191C10.1689 64.6215 10.4981 44.6429 12.5059 31.4248L13 31.5L12.8252 31.0312L54.3252 15.5312L54.4893 15.4707L54.6553 15.5244ZM86.4287 39.0713C75.1949 39.0713 64.421 43.5341 56.4775 51.4775C48.5341 59.421 44.0713 70.1949 44.0713 81.4287C44.0714 92.6624 48.5342 103.436 56.4775 111.38C64.421 119.323 75.1951 123.785 86.4287 123.785C91.991 123.785 97.4988 122.69 102.638 120.562C107.777 118.433 112.447 115.313 116.38 111.38C120.313 107.447 123.433 102.777 125.562 97.6377C127.69 92.4988 128.785 86.9909 128.785 81.4287C128.785 75.8663 127.69 70.3577 125.562 65.2188C123.433 60.08 120.313 55.4106 116.38 51.4775C112.447 47.5444 107.777 44.4245 102.638 42.2959C97.4988 40.1673 91.991 39.0713 86.4287 39.0713ZM83.4541 59.9141C84.1403 56.7928 88.5753 56.7757 89.2871 59.8887L89.4795 60.7314C90.5103 65.2289 92.8464 69.322 96.1943 72.4971C99.4376 75.5728 103.491 77.6546 107.874 78.501L108.3 78.5791L108.591 78.6436C111.398 79.3979 111.398 83.4596 108.591 84.2139L108.3 84.2783C103.755 85.0707 99.5458 87.1875 96.1992 90.3623C92.9572 93.4382 90.6637 97.3749 89.5869 101.706L89.4873 102.126L89.2939 102.969C88.6035 105.987 84.4199 106.053 83.5361 103.226L83.4609 102.943L83.3037 102.229C82.3169 97.7099 80.0068 93.5874 76.668 90.3867C73.4338 87.2865 69.3757 85.1933 64.9824 84.3428L64.5566 84.2637C61.3763 83.7101 61.3763 79.1463 64.5566 78.5928C69.1095 77.7975 73.323 75.6653 76.6602 72.4678C79.9975 69.2699 82.3081 65.1508 83.2969 60.6357L83.4541 59.915V59.9141Z" fill="var(--fill-0, white)"/>
</svg>
