<svg preserveAspectRatio="none" width="100%" height="100%" overflow="visible" style="display: block;" viewBox="0 0 61 61" fill="none" xmlns="http://www.w3.org/2000/svg">
<path id="Vector" d="M0 29.586C0 12.5855 13.3171 0 30.5 0C47.6829 0 61 12.5855 61 29.586C61 46.5866 47.6829 59.1721 30.5 59.1721C27.4119 59.1721 24.4534 58.7641 21.6702 58.0016C21.1306 57.8517 20.5557 57.8921 20.0423 58.116L13.9881 60.7924C13.6224 60.9537 13.2227 61.0228 12.8242 60.9934C12.4256 60.9641 12.0403 60.8373 11.7023 60.6242C11.3642 60.4111 11.0836 60.1182 10.8852 59.7713C10.6868 59.4243 10.5767 59.034 10.5644 58.6345L10.3967 53.2091C10.3849 52.8789 10.3061 52.5546 10.1652 52.2557C10.0243 51.9569 9.82421 51.6898 9.577 51.4706C3.64475 46.1634 0 38.4771 0 29.586ZM21.1441 24.0234L12.1848 38.2369C11.3269 39.6018 13.0006 41.1383 14.2854 40.1661L23.912 32.8611C24.2286 32.6206 24.6149 32.4898 25.0125 32.4884C25.4101 32.487 25.7973 32.6152 26.1156 32.8535L33.2412 38.1988C33.7468 38.5779 34.3254 38.8482 34.9406 38.9926C35.5558 39.137 36.1943 39.1524 36.8158 39.0378C37.4372 38.9231 38.0282 38.681 38.5514 38.3266C39.0747 37.9722 39.5188 37.5133 39.8559 36.9787L48.8152 22.7652C49.6769 21.4003 47.9994 19.8638 46.7146 20.836L37.088 28.1411C36.7714 28.3815 36.3851 28.5124 35.9875 28.5137C35.5899 28.5151 35.2027 28.387 34.8844 28.1487L27.7588 22.7995C27.2532 22.4204 26.6746 22.1501 26.0594 22.0057C25.4442 21.8613 24.8057 21.8459 24.1842 21.9606C23.5628 22.0752 22.9718 22.3173 22.4486 22.6717C21.9253 23.0261 21.4812 23.4888 21.1441 24.0234Z" fill="var(--fill-0, #04FF00)"/>
</svg>
