<svg preserveAspectRatio="none" width="100%" height="100%" overflow="visible" style="display: block;" viewBox="0 0 39 39" fill="none" xmlns="http://www.w3.org/2000/svg">
<g id="Group 111">
<path id="Subtract" d="M37 0C38.1046 0 39 0.895431 39 2V37C39 38.1046 38.1046 39 37 39H2C0.895431 39 1.40933e-08 38.1046 0 37V2C0 0.895431 0.895431 1.40931e-08 2 0H37ZM20.2383 5V24.7891C20.2383 25.6799 19.9613 26.5482 19.4463 27.2695C18.9312 27.9909 18.2042 28.5284 17.3701 28.8057C16.5362 29.0829 15.6373 29.0857 14.8018 28.8135C13.9661 28.5412 13.236 28.0082 12.7168 27.29C12.1976 26.5719 11.9154 25.7052 11.9102 24.8145C11.905 23.9236 12.1776 23.0535 12.6885 22.3291C13.1993 21.6048 13.9225 21.0625 14.7549 20.7803C15.5873 20.4981 16.4861 20.4906 17.3232 20.7578V15.666C15.4938 15.4087 13.6304 15.7239 11.9824 16.5703C10.3343 17.4169 8.97983 18.7545 8.10059 20.4033C7.22141 22.0521 6.85951 23.9344 7.0625 25.7979C7.26554 27.6611 8.02368 29.4172 9.23633 30.8311C10.4492 32.2451 12.0591 33.2493 13.8496 33.71C15.6401 34.1706 17.5268 34.0661 19.2568 33.4092C20.9867 32.7523 22.4773 31.5744 23.5303 30.0342C24.5833 28.4938 25.1487 26.6639 25.1494 24.7891V14.666C27.1471 16.1174 29.5433 16.8956 32 16.8896V11.9404C30.6705 11.9407 29.3698 11.5441 28.2607 10.7998C27.4814 10.29 26.8131 9.62379 26.2959 8.84277C25.7787 8.06156 25.4236 7.18102 25.2529 6.25586C25.1804 5.84141 25.1459 5.42092 25.1494 5H20.2383Z" fill="var(--fill-0, white)"/>
</g>
</svg>
