<svg preserveAspectRatio="none" width="100%" height="100%" overflow="visible" style="display: block;" viewBox="0 0 189 149" fill="none" xmlns="http://www.w3.org/2000/svg">
<g id="Group 194">
<path id="Union" d="M126.094 32.9027H157.144V49.9701H129.008L140.59 67.9047L140.17 68.1752L140.168 68.1762H179.521V100.414H189.003V116.723H179.521V116.724H172.872C173.738 119.219 174.21 121.899 174.21 124.689L174.202 125.315C173.87 138.431 163.133 148.962 149.937 148.962L149.31 148.954C136.401 148.627 125.997 138.223 125.67 125.315L125.662 124.689C125.662 121.899 126.135 119.219 127.001 116.724H67.0527C67.919 119.219 68.3906 121.899 68.3906 124.689L68.3828 125.315C68.0504 138.431 57.3136 148.962 44.1172 148.962L43.4902 148.954C30.5821 148.627 20.1777 138.223 19.8506 125.315L19.8428 124.689C19.8428 121.899 20.3162 119.219 21.1826 116.724H8.08594V109.069H0V92.0707C6.63461e-06 82.1442 5.17968 78.6289 8.08594 78.1312V68.1762H139.575L127.992 50.2416L128.412 49.9701H77.3564V68.1752H76.3564V49.9701H29.9463V68.1752H28.9463V49.9701H3.91406V32.9027H101.757V32.7719H126.094V32.9027ZM44.1172 101.414C31.2636 101.415 20.8429 111.835 20.8428 124.689C20.8432 137.542 31.2638 147.962 44.1172 147.962C56.9706 147.962 67.3902 137.542 67.3906 124.689C67.3905 111.835 56.9708 101.415 44.1172 101.414ZM149.937 101.414C137.083 101.415 126.662 111.835 126.662 124.689C126.662 137.542 137.083 147.962 149.937 147.962C162.79 147.962 173.21 137.542 173.21 124.689C173.21 111.835 162.79 101.415 149.937 101.414ZM43.877 111.797C50.7424 111.972 56.2549 117.592 56.2549 124.499L56.25 124.828C56.0756 131.693 50.456 137.205 43.5488 137.205L43.2207 137.201C36.4643 137.029 31.0183 131.584 30.8467 124.828L30.8428 124.499C30.8428 117.482 36.5316 111.793 43.5488 111.793L43.877 111.797ZM149.696 111.797C156.562 111.972 162.074 117.592 162.074 124.499L162.069 124.828C161.895 131.693 156.275 137.205 149.368 137.205L149.04 137.201C142.284 137.029 136.838 131.584 136.666 124.828L136.662 124.499C136.662 117.482 142.351 111.793 149.368 111.793L149.696 111.797ZM43.5488 112.793C37.0838 112.793 31.8428 118.034 31.8428 124.499C31.8432 130.964 37.0841 136.205 43.5488 136.205C50.0134 136.205 55.2545 130.964 55.2549 124.499C55.2549 118.035 50.0136 112.794 43.5488 112.793ZM149.368 112.793C142.903 112.793 137.662 118.034 137.662 124.499C137.662 130.964 142.903 136.205 149.368 136.205C155.833 136.205 161.074 130.964 161.074 124.499C161.074 118.035 155.833 112.794 149.368 112.793ZM139.97 68.3041L124.525 87.14H97.4062C97.1125 83.9289 96.1239 81.1569 94.7451 78.7953H9.08594V115.724H21.5537C25.1203 106.755 33.8779 100.415 44.1172 100.414L44.7432 100.422C54.7367 100.675 63.2284 106.969 66.7061 115.788C66.6977 115.767 66.6901 115.745 66.6816 115.724H127.373C130.94 106.755 139.697 100.415 149.937 100.414L150.562 100.422C160.556 100.675 169.048 106.969 172.525 115.788C172.517 115.767 172.509 115.745 172.501 115.724H178.521V91.682C178.349 91.6871 178.177 91.6918 178.004 91.6918L177.632 91.6879C169.968 91.5296 163.791 86.4898 163.596 80.2377L163.591 79.934C163.591 75.1294 167.125 71.0004 172.187 69.1762H139.255L139.971 68.3031L139.97 68.3041ZM180.142 115.723H188.003V101.414H180.142V115.723ZM8.08594 79.1488C5.68534 79.6635 1.00001 82.7616 1 92.0707V108.069H8.08594V79.1488ZM110.491 101.173H97.5957V94.3461H110.491V101.173ZM98.5957 100.173H109.491V95.3461H98.5957V100.173ZM178.004 69.1762C170.396 69.1762 164.591 74.1733 164.591 79.934C164.591 85.6943 170.397 90.6918 178.004 90.6918C178.177 90.6918 178.349 90.6875 178.521 90.682V69.184C178.349 69.1787 178.177 69.1762 178.004 69.1762ZM86.0732 69.1762C87.8453 70.1652 89.7318 71.4759 91.4844 73.1342C94.7289 76.2043 97.5457 80.4934 98.2988 86.14H124.053L137.963 69.1762H86.0732ZM9.08594 77.7953H94.123C91.2773 73.4988 87.1553 70.6931 83.876 69.1762H9.08594V77.7953ZM4.91406 48.9701H156.144V33.9027H4.91406V48.9701Z" fill="var(--fill-0, white)"/>
<path id="Union_2" d="M45 33.431H16V4.43104H45V33.431ZM17 32.431H44V5.43104H35V18.431L30.5 14.2943L26 18.431V5.43104H17V32.431ZM30 27.931H21V26.931H30V27.931Z" fill="var(--fill-0, white)"/>
<path id="Union_3" d="M77 33.431H48V4.43104H77V33.431ZM49 32.431H76V5.43104H67V18.431L62.5 14.2943L58 18.431V5.43104H49V32.431ZM62 27.931H53V26.931H62V27.931Z" fill="var(--fill-0, white)"/>
<path id="Union_4" d="M109 33.431H80V4.43104H109V33.431ZM81 32.431H108V5.43104H99V18.431L94.5 14.2943L90 18.431V5.43104H81V32.431ZM94 27.931H85V26.931H94V27.931Z" fill="var(--fill-0, white)"/>
<path id="Union_5" d="M141.807 28.6319L113.175 33.238L108.569 4.60609L137.201 1.63913e-07L141.807 28.6319ZM114.004 32.0918L140.661 27.8034L136.372 1.14614L127.487 2.57561L129.551 15.4106L124.451 12.0411L120.666 16.8401L118.601 4.00509L109.715 5.43456L114.004 32.0918ZM126.124 25.5841L117.238 27.0136L117.079 26.0263L125.965 24.5968L126.124 25.5841Z" fill="var(--fill-0, white)"/>
</g>
</svg>
