<svg preserveAspectRatio="none" width="100%" height="100%" overflow="visible" style="display: block;" viewBox="0 0 26 26" fill="none" xmlns="http://www.w3.org/2000/svg">
<g id="Group 111">
<path id="Subtract" d="M23.3242 0C24.4287 0.000147494 25.3242 0.895522 25.3242 2V23.3242C25.3241 24.4286 24.4286 25.3241 23.3242 25.3242H2C0.895522 25.3242 0.000148411 24.4287 0 23.3242V2C0 0.895431 0.895431 0 2 0H23.3242ZM13.2061 3.24707V16.001C13.2061 16.575 13.0243 17.1347 12.6875 17.5996C12.3507 18.0644 11.8755 18.4111 11.3301 18.5898C10.7846 18.7685 10.196 18.7711 9.64941 18.5957C9.10271 18.4202 8.62484 18.0762 8.28516 17.6133C7.94548 17.1504 7.7612 16.5917 7.75781 16.0176C7.75443 15.4434 7.93241 14.8829 8.2666 14.416C8.60073 13.9492 9.07373 13.5999 9.61816 13.418C10.1627 13.2361 10.7511 13.2311 11.2988 13.4033V10.1211C10.102 9.95523 8.88281 10.1585 7.80469 10.7041C6.72648 11.2497 5.84083 12.1121 5.26562 13.1748C4.69046 14.2375 4.45315 15.4503 4.58594 16.6514C4.71874 17.8524 5.21535 18.9841 6.00879 19.8955C6.80227 20.8069 7.855 21.4551 9.02637 21.752C10.1976 22.0488 11.4318 21.981 12.5635 21.5576C13.6953 21.1342 14.6705 20.3747 15.3594 19.3818C16.0482 18.389 16.4175 17.2094 16.418 16.001V9.47656C17.7249 10.4121 19.2932 10.914 20.9004 10.9102V7.71973C20.0306 7.71991 19.1796 7.46411 18.4541 6.98438C17.9443 6.65578 17.5063 6.22705 17.168 5.72363C16.8296 5.22008 16.598 4.652 16.4863 4.05566C16.439 3.78878 16.4157 3.51812 16.418 3.24707H13.2061Z" fill="var(--fill-0, white)"/>
</g>
</svg>
