<svg preserveAspectRatio="none" width="100%" height="100%" overflow="visible" style="display: block;" viewBox="0 0 1214 260" fill="none" xmlns="http://www.w3.org/2000/svg">
<g id="TEES. PEEPS. KEEPS.">
<path d="M22.9868 256.389V39.7222H0V3.61111H67.9611V39.7222H44.9742V256.389H22.9868Z" fill="var(--fill-0, black)"/>
<path d="M78.6065 256.389V3.61111H138.572V39.7222H100.594V106.528H130.777V142.639H100.594V220.278H138.572V256.389H78.6065Z" fill="var(--fill-0, black)"/>
<path d="M151.221 256.389V3.61111H211.187V39.7222H173.209V106.528H203.391V142.639H173.209V220.278H211.187V256.389H151.221Z" fill="var(--fill-0, black)"/>
<path d="M252.81 260C231.222 260 220.428 236.889 220.428 196.444V182H241.217V199.333C241.217 217.389 245.614 223.889 252.61 223.889C259.606 223.889 264.003 217.389 264.003 198.611C264.003 177.667 259.606 164.306 245.214 141.556C226.825 112.306 220.828 91.7222 220.828 62.8333C220.828 23.1111 232.222 0 253.609 0C274.997 0 285.591 23.1111 285.591 63.5555V74.0278H264.803V61.0278C264.803 42.9722 260.805 36.1111 253.809 36.1111C246.813 36.1111 242.816 42.9722 242.816 60.3055C242.816 78.7222 247.413 92.0833 261.805 114.833C280.194 144.083 285.991 164.306 285.991 195.722C285.991 236.889 274.398 260 252.81 260Z" fill="var(--fill-0, black)"/>
<path d="M298.598 256.389V218.111H319.786V256.389H298.598Z" fill="var(--fill-0, black)"/>
<path d="M368.284 256.389V3.61111H400.666C422.653 3.61111 433.447 25.6389 433.447 66.0833V91C433.447 131.444 422.653 153.472 400.666 153.472H390.272V256.389H368.284ZM390.272 117.361H400.666C407.662 117.361 411.46 111.583 411.46 93.5278V63.5555C411.46 45.5 407.662 39.7222 400.666 39.7222H390.272V117.361Z" fill="var(--fill-0, black)"/>
<path d="M445.389 256.389V3.61111H505.354V39.7222H467.376V106.528H497.559V142.639H467.376V220.278H505.354V256.389H445.389Z" fill="var(--fill-0, black)"/>
<path d="M518.003 256.389V3.61111H577.969V39.7222H539.991V106.528H570.173V142.639H539.991V220.278H577.969V256.389H518.003Z" fill="var(--fill-0, black)"/>
<path d="M590.618 256.389V3.61111H622.999C644.987 3.61111 655.781 25.6389 655.781 66.0833V91C655.781 131.444 644.987 153.472 622.999 153.472H612.605V256.389H590.618ZM612.605 117.361H622.999C629.995 117.361 633.793 111.583 633.793 93.5278V63.5555C633.793 45.5 629.995 39.7222 622.999 39.7222H612.605V117.361Z" fill="var(--fill-0, black)"/>
<path d="M697.087 260C675.499 260 664.705 236.889 664.705 196.444V182H685.493V199.333C685.493 217.389 689.891 223.889 696.887 223.889C703.883 223.889 708.28 217.389 708.28 198.611C708.28 177.667 703.883 164.306 689.491 141.556C671.102 112.306 665.105 91.7222 665.105 62.8333C665.105 23.1111 676.498 0 697.886 0C719.274 0 729.868 23.1111 729.868 63.5555V74.0278H709.08V61.0278C709.08 42.9722 705.082 36.1111 698.086 36.1111C691.09 36.1111 687.092 42.9722 687.092 60.3055C687.092 78.7222 691.69 92.0833 706.082 114.833C724.471 144.083 730.268 164.306 730.268 195.722C730.268 236.889 718.674 260 697.087 260Z" fill="var(--fill-0, black)"/>
<path d="M742.874 256.389V218.111H764.062V256.389H742.874Z" fill="var(--fill-0, black)"/>
<path d="M812.561 256.389V3.61111H834.549V110.139L862.533 3.61111H884.52L858.335 96.4167L884.92 256.389H861.933L843.343 143.722L834.549 175.861V256.389H812.561Z" fill="var(--fill-0, black)"/>
<path d="M895.326 256.389V3.61111H955.292V39.7222H917.314V106.528H947.496V142.639H917.314V220.278H955.292V256.389H895.326Z" fill="var(--fill-0, black)"/>
<path d="M967.941 256.389V3.61111H1027.91V39.7222H989.928V106.528H1020.11V142.639H989.928V220.278H1027.91V256.389H967.941Z" fill="var(--fill-0, black)"/>
<path d="M1040.56 256.389V3.61111H1072.94C1094.92 3.61111 1105.72 25.6389 1105.72 66.0833V91C1105.72 131.444 1094.92 153.472 1072.94 153.472H1062.54V256.389H1040.56ZM1062.54 117.361H1072.94C1079.93 117.361 1083.73 111.583 1083.73 93.5278V63.5555C1083.73 45.5 1079.93 39.7222 1072.94 39.7222H1062.54V117.361Z" fill="var(--fill-0, black)"/>
<path d="M1147.02 260C1125.44 260 1114.64 236.889 1114.64 196.444V182H1135.43V199.333C1135.43 217.389 1139.83 223.889 1146.82 223.889C1153.82 223.889 1158.22 217.389 1158.22 198.611C1158.22 177.667 1153.82 164.306 1139.43 141.556C1121.04 112.306 1115.04 91.7222 1115.04 62.8333C1115.04 23.1111 1126.44 0 1147.82 0C1169.21 0 1179.81 23.1111 1179.81 63.5555V74.0278H1159.02V61.0278C1159.02 42.9722 1155.02 36.1111 1148.02 36.1111C1141.03 36.1111 1137.03 42.9722 1137.03 60.3055C1137.03 78.7222 1141.63 92.0833 1156.02 114.833C1174.41 144.083 1180.21 164.306 1180.21 195.722C1180.21 236.889 1168.61 260 1147.02 260Z" fill="var(--fill-0, black)"/>
<path d="M1192.81 256.389V218.111H1214V256.389H1192.81Z" fill="var(--fill-0, black)"/>
</g>
</svg>
