<svg preserveAspectRatio="none" width="100%" height="100%" overflow="visible" style="display: block;" viewBox="0 0 59 55" fill="none" xmlns="http://www.w3.org/2000/svg">
<g id="Group 116">
<rect id="Rectangle 124" x="0.5" y="0.5" width="57.0917" height="54" fill="var(--fill-0, black)" stroke="var(--stroke-0, white)"/>
<path id="Vector" fill-rule="evenodd" clip-rule="evenodd" d="M13.5654 21.1037C13.3367 21.1541 13.1274 21.2766 12.9647 21.4554C12.8019 21.6343 12.6932 21.8611 12.6527 22.1065C12.6122 22.3519 12.6418 22.6046 12.7375 22.8317C12.8332 23.0589 12.9907 23.2501 13.1896 23.3805L23.2537 29.9691L32.9828 22.8456C33.2377 22.6589 33.5516 22.5879 33.8553 22.6481C34.1591 22.7084 34.428 22.8949 34.6027 23.1668C34.7774 23.4386 34.8437 23.7734 34.787 24.0976C34.7303 24.4218 34.5553 24.7087 34.3004 24.8954L24.5714 32.0189L26.7082 44.4117C26.7507 44.6567 26.8611 44.8824 27.0252 45.0594C27.1894 45.2365 27.3996 45.3569 27.6287 45.4049C27.8578 45.4529 28.0952 45.4263 28.3101 45.3286C28.525 45.2309 28.7075 45.0666 28.8339 44.857L46.1548 16.0971C46.2786 15.8912 46.3428 15.651 46.3393 15.4066C46.3358 15.1621 46.2649 14.9242 46.1353 14.7227C46.0058 14.5211 45.8233 14.3648 45.6109 14.2734C45.3984 14.1819 45.1654 14.1594 44.9409 14.2085L13.5654 21.1037Z" fill="var(--fill-0, white)"/>
</g>
</svg>
