<svg preserveAspectRatio="none" width="100%" height="100%" overflow="visible" style="display: block;" viewBox="0 0 154 143" fill="none" xmlns="http://www.w3.org/2000/svg">
<g id="Group 131">
<path id="Vector" d="M96.3757 92.2781H153.218V114.165H140.586V129.799H96.3757V92.2781ZM140.586 107.912H146.902V98.5315H140.586V107.912ZM134.27 98.5315H102.691V123.545H134.27V98.5315ZM143.744 142.306H93.2178V136.052H143.744V142.306Z" fill="var(--fill-0, white)"/>
<path id="Vector_2" d="M48.3621 44.4522H15.0776C10.8815 44.4522 7.26569 43.3645 4.61858 41.3072C1.59737 38.9568 0 35.4715 0 31.2277C0 27.5243 1.43379 24.3098 4.14491 21.933C6.31267 20.0327 9.28978 18.7089 12.5372 18.2046C12.5457 18.2046 12.5485 18.2046 12.55 18.1977C13.466 12.7801 15.9396 8.18344 19.7061 4.90649C23.3704 1.73264 28.1022 -0.0137428 33 8.14492e-05C37.3 8.14492e-05 41.3183 1.30447 44.6225 3.77434C47.5112 5.96428 49.7404 8.87566 51.0746 12.2008C55.2579 12.8704 58.8581 14.5776 61.4853 17.1378C64.4353 20.0188 66 23.8528 66 28.2272C66 32.7905 64.1324 36.9606 60.7371 39.9681C57.4812 42.8603 53.0845 44.4522 48.3621 44.4522ZM9.93129 57.5688L17.0078 47.2021L20.7951 49.6678L13.7185 60.0345L9.93129 57.5688ZM16.7585 64.2373L28.3868 47.2028L32.1741 49.6685L20.5456 66.7031L16.7585 64.2373ZM32.6888 57.5691L39.7653 47.2024L43.5526 49.6681L36.4761 60.0348L32.6888 57.5691ZM39.5158 64.2376L51.1442 47.203L54.9315 49.6687L43.303 66.7033L39.5158 64.2376Z" fill="var(--fill-0, white)"/>
<path id="Union" d="M18.5 108.805C18.5001 110.512 19.067 111.897 20.0225 112.852C20.9781 113.808 22.3624 114.375 24.0693 114.375H41.7773V65.5281H42.7773V96.4587L54.416 108.098L66.2021 96.3132L66.2783 96.2507C66.3597 96.1966 66.4565 96.1668 66.5557 96.1667C66.6879 96.1669 66.8156 96.2198 66.9092 96.3132L78.6943 108.098L90.4795 96.3132L90.5586 96.2488C90.7524 96.1212 91.0159 96.143 91.1865 96.3132L95.583 100.71V102.123L90.833 97.3728L79.0479 109.159C78.9542 109.253 78.8267 109.305 78.6943 109.305C78.5619 109.305 78.4345 109.253 78.3408 109.159L66.5557 97.3738L54.7705 109.159C54.6769 109.253 54.5493 109.305 54.417 109.305C54.2847 109.305 54.1571 109.252 54.0635 109.159L42.7773 97.8728V127.013C42.7773 128.72 43.3453 130.105 44.3008 131.06C45.2565 132.016 46.6407 132.583 48.3477 132.583H95.583V133.583H48.3477C46.4135 133.583 44.7622 132.936 43.5938 131.767C42.4255 130.599 41.7773 128.948 41.7773 127.013V115.375H24.0693C22.1351 115.375 20.4839 114.728 19.3154 113.559C18.1472 112.391 17.5001 110.74 17.5 108.805V65.5281H18.5V108.805ZM115.111 47.6111C115.387 47.6114 115.611 47.8355 115.611 48.1111V92.4441H114.611V61.4568L103.326 72.7419C103.233 72.8355 103.105 72.8882 102.973 72.8884C102.84 72.8883 102.713 72.8355 102.619 72.7419L90.833 60.9558L79.0479 72.7419C78.9542 72.8356 78.8268 72.8883 78.6943 72.8884C78.5619 72.8883 78.4345 72.8356 78.3408 72.7419L66.5557 60.9568L65.5 62.0125V61.9851L61.957 65.5281H61.9844L54.7705 72.7419C54.5753 72.9371 54.2587 72.937 54.0635 72.7419L46.8496 65.5281H48.2637L54.416 71.6814L60.1592 65.9373L60.1465 65.9246L65.6465 60.4246L65.6592 60.4373L66.2021 59.8962L66.2783 59.8337C66.3597 59.7796 66.4565 59.7498 66.5557 59.7498C66.6879 59.7499 66.8156 59.8029 66.9092 59.8962L78.6943 71.6814L90.4795 59.8962L90.5586 59.8318C90.7524 59.7044 91.0159 59.7261 91.1865 59.8962L102.972 71.6814L114.611 60.0427V48.1111C114.612 47.8354 114.836 47.6113 115.111 47.6111ZM103.134 11.2205L127.998 19.7117C134.914 21.6036 139.888 29.1028 139.889 35.9714V92.4441H138.889V35.9714C138.888 29.4914 134.156 22.4277 127.726 20.6736C127.716 20.6709 127.705 20.6681 127.695 20.6648L103.461 12.3894C103.284 18.7085 100.697 24.7321 96.2148 29.2146C91.5682 33.8612 85.2656 36.4713 78.6943 36.4714C73.9883 36.4714 69.4208 35.1324 65.5 32.6658V31.4744C69.3784 34.0613 73.9635 35.4713 78.6943 35.4714C85.0004 35.4713 91.0487 32.9666 95.5078 28.5076C99.9667 24.0484 102.473 18.0001 102.473 11.6941C102.473 11.533 102.551 11.3816 102.682 11.2878C102.813 11.1943 102.981 11.1686 103.134 11.2205Z" fill="var(--fill-0, white)"/>
</g>
</svg>
