<svg preserveAspectRatio="none" width="100%" height="100%" overflow="visible" style="display: block;" viewBox="0 0 25 25" fill="none" xmlns="http://www.w3.org/2000/svg">
<g id="Group 111">
<path id="Subtract" d="M23 0C24.1046 0 25 0.895431 25 2V23C25 24.1046 24.1046 25 23 25H2C0.895431 25 0 24.1046 0 23V2C0 0.895431 0.895431 0 2 0H23ZM13.0371 3.20508V15.7969C13.0371 16.3637 12.858 16.9161 12.5254 17.375C12.1928 17.834 11.7233 18.1761 11.1846 18.3525C10.6459 18.5289 10.0651 18.5307 9.52539 18.3574C8.9858 18.1842 8.51498 17.8446 8.17969 17.3877C7.84435 16.9307 7.66154 16.3793 7.6582 15.8125C7.65489 15.2457 7.83122 14.6923 8.16113 14.2314C8.49098 13.7707 8.9577 13.4257 9.49512 13.2461C10.0327 13.0665 10.6136 13.0614 11.1543 13.2314V9.99219C9.97275 9.82843 8.76941 10.0288 7.70508 10.5674C6.64072 11.106 5.76609 11.9568 5.19824 13.0059C4.6304 14.055 4.39624 15.2528 4.52734 16.4385C4.65846 17.6242 5.14834 18.7419 5.93164 19.6416C6.71495 20.5413 7.75481 21.1805 8.91113 21.4736C10.0673 21.7666 11.2852 21.6991 12.4023 21.2812C13.5197 20.8633 14.483 20.1139 15.1631 19.1338C15.843 18.1537 16.2075 16.9897 16.208 15.7969V9.35547C17.4981 10.279 19.0462 10.7743 20.6328 10.7705V7.62109C19.7744 7.62123 18.9349 7.3689 18.2188 6.89551C17.7155 6.57117 17.2832 6.1473 16.9492 5.65039C16.6151 5.15328 16.3856 4.59261 16.2754 4.00391C16.2286 3.74027 16.2058 3.47283 16.208 3.20508H13.0371Z" fill="var(--fill-0, white)"/>
</g>
</svg>
